<svg width="3222" height="3134" viewBox="0 0 3222 3134" fill="none" xmlns="http://www.w3.org/2000/svg">
<rect width="3222" height="3134" rx="250" fill="#1B191A"/>
<path d="M1851 880.5L1746.5 1039H1828L1911.5 908.5C1913.29 905.379 1914.27 904.357 1916 904.5H1946.5C1958.47 904.492 1965.25 903.931 1977.5 901.5C1993.3 898.57 2002.06 895.757 2017.5 888.5C2025.79 882.975 2035.13 875.777 2038.5 868C2042.1 854.384 2040.93 849.051 2037.5 840.5C2034.89 833.882 2031.03 830.274 2020.5 824C2011.25 820.859 2006.11 821.036 1997 824.5L1984.5 831.5C1978.25 834.979 1974.69 836.627 1968 838C1964.57 838.297 1962.06 838.232 1957 838C1953.56 837.574 1953.94 836.351 1955 834.5L2082.5 633L2036.5 589.5L1899.5 792.5C1898.52 794.387 1897.97 795.25 1897 794.5C1893.55 789.805 1891.57 784.728 1888 773C1886.07 766.274 1886 759.225 1887 743C1887.73 732.56 1889.12 726.561 1894 715.5C1895.36 710.841 1895.18 707.575 1894.5 701.5C1892.39 695.212 1890.65 692.068 1886 687.5C1881.19 682.544 1877.41 680.594 1869.5 678C1859.46 677.77 1855.04 678.823 1848.5 682C1839 687.434 1835.71 692.033 1831.5 701.5C1818.1 759.413 1824.86 795.111 1853 863.5C1855.65 869.626 1855.89 873.247 1851 880.5Z" fill="#904424" stroke="#904424"/>
<path d="M2280.5 216.5C2316.11 206.785 2327.24 215.07 2332.5 252.5C2358.01 353.91 2363.02 388.791 2363.5 416.5C2360.5 452 2359.84 474.314 2338 513C2316.16 551.686 2298.83 571.309 2251.5 594C2215.81 610.911 2183.03 616.909 2109.5 623.5H2107C2095.44 624.602 2088.75 628.565 2076.5 641C2048.31 625.534 2041.13 614.749 2034.5 594C2034.27 569.864 2029.76 555.529 2016.5 529C1996.76 472.752 1994.87 440.668 2007 382.5C2031.74 318.25 2056.17 290.277 2121.5 257C2145.27 246.064 2190.05 235.927 2280.5 216.5Z" fill="#FE6517" stroke="#FE6517"/>
<circle cx="2190" cy="424" r="71" fill="#D9D9D9"/>
<path d="M1369.5 878.738L1474 1037.24H1392.5L1309 906.737C1307.21 903.616 1306.23 902.594 1304.5 902.737H1274C1262.03 902.729 1255.25 902.168 1243 899.737C1227.2 896.808 1218.44 893.994 1203 886.737C1194.71 881.212 1185.37 874.014 1182 866.237C1178.4 852.622 1179.57 847.289 1183 838.737C1185.61 832.119 1189.47 828.511 1200 822.237C1209.25 819.096 1214.39 819.274 1223.5 822.737L1236 829.737C1242.25 833.216 1245.81 834.864 1252.5 836.237C1255.93 836.535 1258.44 836.469 1263.5 836.237C1266.94 835.812 1266.56 834.588 1265.5 832.737L1138 631.237L1184 587.737L1321 790.737C1321.98 792.624 1322.53 793.487 1323.5 792.737C1326.95 788.043 1328.93 782.966 1332.5 771.237C1334.43 764.512 1334.5 757.462 1333.5 741.237C1332.77 730.797 1331.38 724.798 1326.5 713.737C1325.14 709.079 1325.32 705.813 1326 699.737C1328.11 693.45 1329.85 690.305 1334.5 685.737C1339.31 680.781 1343.09 678.831 1351 676.238C1361.04 676.008 1365.46 677.06 1372 680.238C1381.5 685.672 1384.79 690.27 1389 699.738C1402.4 757.65 1395.64 793.348 1367.5 861.738C1364.85 867.864 1364.61 871.485 1369.5 878.738Z" fill="#904424" stroke="#904424"/>
<path d="M940 214.737C904.386 205.022 893.261 213.307 888 250.737C862.489 352.148 857.48 387.029 857 414.737C860 450.237 860.657 472.551 882.5 511.237C904.343 549.923 921.668 569.547 969 592.237C1004.69 609.149 1037.47 615.146 1111 621.737H1113.5C1125.06 622.839 1131.75 626.802 1144 639.237C1172.19 623.771 1179.37 612.986 1186 592.237C1186.23 568.101 1190.74 553.766 1204 527.237C1223.74 470.989 1225.63 438.906 1213.5 380.737C1188.76 316.487 1164.33 288.514 1099 255.237C1075.23 244.301 1030.45 234.164 940 214.737Z" fill="#FE6517" stroke="#FE6517"/>
<circle cx="71" cy="71" r="71" transform="matrix(-1 0 0 1 1101.5 351.237)" fill="#FDFAEB"/>
<ellipse cx="1611" cy="2130" rx="770" ry="750" fill="#D9CAB5"/>
<rect x="1361" y="1124" width="501" height="326" fill="#D9CAB5"/>
<rect x="1299" y="1037" width="625" height="101" fill="#FDF9ED"/>
<circle cx="1299.5" cy="1087.5" r="50.5" fill="#FDF9ED"/>
<circle cx="1924.5" cy="1087.5" r="50.5" fill="#FDF9ED"/>
<path d="M1361.5 1384.5C1362.3 1417.3 1339.5 1430.5 1328 1433H1389L1385.5 1384.5H1361.5Z" fill="#D9CAB5" stroke="#D9CAB5"/>
<path d="M1861.5 1385C1860.7 1417.8 1883.5 1431 1895 1433.5H1834L1837.5 1385H1861.5Z" fill="#D9CAB5" stroke="#D9CAB5"/>
<rect x="1361" y="1138" width="501" height="40" fill="#CABB9E"/>
<ellipse cx="150.775" cy="185.122" rx="150.775" ry="185.122" transform="matrix(-0.972114 0.23451 0.23451 0.972114 1350.14 1526)" fill="#FDF9ED"/>
<ellipse cx="136.5" cy="176" rx="136.5" ry="176" transform="matrix(-1 0 0 1 1367.47 1567.07)" fill="#FDF9ED"/>
<ellipse cx="118.07" cy="147.657" rx="118.07" ry="147.657" transform="matrix(-0.973814 0.227345 0.227345 0.973814 1300.71 1603.07)" fill="#E2D3C0"/>
<ellipse cx="1987.48" cy="1741.24" rx="150.775" ry="185.122" transform="rotate(13.5627 1987.48 1741.24)" fill="#FDF9ED"/>
<ellipse cx="2003.5" cy="1743" rx="136.5" ry="176" fill="#FDF9ED"/>
<ellipse cx="2015.17" cy="1773.63" rx="118.07" ry="147.657" transform="rotate(13.1408 2015.17 1773.63)" fill="#E2D3C0"/>
<ellipse cx="196.816" cy="137.394" rx="196.816" ry="137.394" transform="matrix(-0.984691 0.174308 0.174308 0.984691 2173.61 1939)" fill="#FDF9ED"/>
<path d="M1422.56 2143.9C1409.33 2218.62 1311.84 2263.84 1204.8 2244.89C1097.77 2225.94 1021.72 2150.01 1034.95 2075.29C1048.18 2000.57 1145.67 1955.36 1252.7 1974.31C1359.74 1993.25 1435.78 2069.19 1422.56 2143.9Z" fill="#FDF9ED"/>
<ellipse cx="1552.52" cy="2877.49" rx="32.5258" ry="35.188" transform="rotate(-28.8419 1552.52 2877.49)" fill="#FDF9ED"/>
<ellipse cx="31.1993" cy="35.188" rx="31.1993" ry="35.188" transform="matrix(-0.875954 -0.482394 -0.482394 0.875954 1723.75 2862.18)" fill="#FDF9ED"/>
<ellipse cx="1611.5" cy="2073.5" rx="408.5" ry="470.5" fill="#FDF9ED"/>
<path d="M1692 2689.5C1688.8 2735.5 1662.67 2829 1650 2870L1701 2901C1706.67 2896.83 1720.9 2882.9 1732.5 2860.5C1770.67 2765.17 1855.8 2573.2 1891 2568L1855 2627C1851.67 2634 1850.2 2649 1871 2653C1891.8 2657 1917 2639.33 1927 2630C1934.67 2623.67 1946.8 2606 1934 2586C1934 2586 1916 2552.5 1918 2548.5C1920 2544.5 1941 2533 1949.5 2532.5C1958 2532 1956.3 2539.07 1963.3 2539.57C1970.3 2540.07 2002 2513 2008 2505.5C2014 2498 2009.5 2494 2012 2487.5C2014.5 2481 2029 2464 2029 2464C2047.96 2441.95 2086.63 2405.69 2113.5 2360.5C2134.7 2324.85 2146.75 2282.5 2148.5 2245C2150.33 2229.5 2145.2 2203.7 2110 2224.5C2074.8 2245.3 2075.67 2227.5 2080.5 2216L1913.5 2241.5L1617 2392V2596.5C1623 2596.1 1641.5 2569.67 1650 2556.5C1656.33 2545 1672.7 2528.9 1687.5 2556.5C1702.3 2584.1 1696.67 2656.67 1692 2689.5Z" fill="#FDF9ED" stroke="#FDF9ED"/>
<path d="M1541.82 2689.5C1545.02 2735.5 1571.15 2829 1583.82 2870L1532.82 2901C1527.15 2896.83 1512.92 2882.9 1501.32 2860.5C1463.15 2765.17 1378.02 2573.2 1342.82 2568L1378.82 2627C1382.15 2634 1383.62 2649 1362.82 2653C1342.02 2657 1316.82 2639.33 1306.82 2630C1299.15 2623.67 1287.02 2606 1299.82 2586C1299.82 2586 1317.82 2552.5 1315.82 2548.5C1313.82 2544.5 1292.82 2533 1284.32 2532.5C1275.82 2532 1277.52 2539.07 1270.52 2539.57C1263.52 2540.07 1231.82 2513 1225.82 2505.5C1219.82 2498 1224.32 2494 1221.82 2487.5C1219.32 2481 1204.82 2464 1204.82 2464C1185.86 2441.95 1147.19 2405.69 1120.32 2360.5C1099.12 2324.85 1087.07 2282.5 1085.32 2245C1083.49 2229.5 1088.62 2203.7 1123.82 2224.5C1159.02 2245.3 1158.15 2227.5 1153.32 2216L1320.32 2241.5L1616.82 2392V2596.5C1610.82 2596.1 1592.32 2569.67 1583.82 2556.5C1577.49 2545 1561.12 2528.9 1546.32 2556.5C1531.52 2584.1 1537.15 2656.67 1541.82 2689.5Z" fill="#FDF9ED" stroke="#FDF9ED"/>
<path d="M1975.5 1861C2016.7 1945.4 2067.17 1973 2085.5 1976L1975.5 1974C1958.33 1901.17 1934.3 1776.6 1975.5 1861Z" fill="#FDF9ED" stroke="#FDF9ED"/>
<path d="M1252.18 1855.44C1215.76 1942.01 1166.91 1972.39 1148.77 1976.4L1258.49 1968.27C1271.56 1894.59 1288.6 1768.87 1252.18 1855.44Z" fill="#FDF9ED" stroke="#FDF9ED"/>
<path d="M1595 2764.02C1601 2782.02 1612.17 2785.85 1617 2785.52C1618 2794.18 1619.4 2811.32 1617 2810.52C1614.6 2809.72 1609.33 2812.52 1607 2814.02C1596.2 2816.42 1590.17 2810.68 1588.5 2807.52C1583.3 2800.32 1576.67 2776.85 1574 2766.02C1571.6 2758.82 1571 2748.02 1571 2743.52C1574.2 2723.12 1583 2733.02 1587 2740.52L1595 2764.02Z" fill="#FDF9ED" stroke="#FDF9ED"/>
<path d="M1639.5 2764C1633.5 2782 1622.33 2785.83 1617.5 2785.5C1616.5 2794.17 1615.1 2811.3 1617.5 2810.5C1619.9 2809.7 1625.17 2812.5 1627.5 2814C1638.3 2816.4 1644.33 2810.67 1646 2807.5C1651.2 2800.3 1657.83 2776.83 1660.5 2766C1662.9 2758.8 1663.5 2748 1663.5 2743.5C1660.3 2723.1 1651.5 2733 1647.5 2740.5L1639.5 2764Z" fill="#FDF9ED" stroke="#FDF9ED"/>
<ellipse cx="54.3954" cy="116.323" rx="54.3954" ry="116.323" transform="matrix(-0.778368 0.627808 0.627808 0.778368 1225.68 2238)" fill="black"/>
<ellipse cx="1967.2" cy="2363.41" rx="54.3954" ry="116.323" transform="rotate(38.8886 1967.2 2363.41)" fill="black"/>
<circle cx="2190" cy="424" r="71" fill="#FDFAEB"/>
</svg>
